<svg xmlns="http://www.w3.org/2000/svg" viewBox="0 0 48 48" width="48" height="48">
  <defs>
    <linearGradient id="grad1" x1="0%" y1="0%" x2="100%" y2="100%">
      <stop offset="0%" style="stop-color:#3B82F6;stop-opacity:1" />
      <stop offset="100%" style="stop-color:#8B5CF6;stop-opacity:1" />
    </linearGradient>
  </defs>
  
  <!-- Background circle -->
  <circle cx="24" cy="24" r="22" fill="url(#grad1)" stroke="#1E40AF" stroke-width="2"/>
  
  <!-- QR Code representation -->
  <g transform="translate(12, 12)">
    <!-- Outer squares -->
    <rect x="0" y="0" width="8" height="8" fill="white" rx="1"/>
    <rect x="16" y="0" width="8" height="8" fill="white" rx="1"/>
    <rect x="0" y="16" width="8" height="8" fill="white" rx="1"/>
    
    <!-- Inner squares -->
    <rect x="2" y="2" width="4" height="4" fill="#1E40AF" rx="0.5"/>
    <rect x="18" y="2" width="4" height="4" fill="#1E40AF" rx="0.5"/>
    <rect x="2" y="18" width="4" height="4" fill="#1E40AF" rx="0.5"/>
    
    <!-- Data dots -->
    <rect x="10" y="2" width="2" height="2" fill="white" rx="0.5"/>
    <rect x="14" y="2" width="2" height="2" fill="white" rx="0.5"/>
    <rect x="10" y="6" width="2" height="2" fill="white" rx="0.5"/>
    <rect x="14" y="6" width="2" height="2" fill="white" rx="0.5"/>
    <rect x="2" y="10" width="2" height="2" fill="white" rx="0.5"/>
    <rect x="6" y="10" width="2" height="2" fill="white" rx="0.5"/>
    <rect x="10" y="10" width="2" height="2" fill="white" rx="0.5"/>
    <rect x="14" y="10" width="2" height="2" fill="white" rx="0.5"/>
    <rect x="18" y="10" width="2" height="2" fill="white" rx="0.5"/>
    <rect x="22" y="10" width="2" height="2" fill="white" rx="0.5"/>
    <rect x="2" y="14" width="2" height="2" fill="white" rx="0.5"/>
    <rect x="6" y="14" width="2" height="2" fill="white" rx="0.5"/>
    <rect x="10" y="14" width="2" height="2" fill="white" rx="0.5"/>
    <rect x="14" y="14" width="2" height="2" fill="white" rx="0.5"/>
    <rect x="18" y="14" width="2" height="2" fill="white" rx="0.5"/>
    <rect x="22" y="14" width="2" height="2" fill="white" rx="0.5"/>
    <rect x="10" y="18" width="2" height="2" fill="white" rx="0.5"/>
    <rect x="14" y="18" width="2" height="2" fill="white" rx="0.5"/>
    <rect x="18" y="18" width="2" height="2" fill="white" rx="0.5"/>
    <rect x="22" y="18" width="2" height="2" fill="white" rx="0.5"/>
    <rect x="10" y="22" width="2" height="2" fill="white" rx="0.5"/>
    <rect x="14" y="22" width="2" height="2" fill="white" rx="0.5"/>
    <rect x="18" y="22" width="2" height="2" fill="white" rx="0.5"/>
    <rect x="22" y="22" width="2" height="2" fill="white" rx="0.5"/>
  </g>
</svg>